<svg style="display:none" width="0" height="0" version="1.1" xmlns="http://www.w3.org/2000/svg" xmlns:xlink="http://www.w3.org/1999/xlink">
  <defs>
    <symbol id="logo" viewBox="0 0 150 150">
      <title>NMT-Benchmark logo</title>
        <path
          style="background: red; color: white"
          d="m 14.978106,93.691078 0,-1.32955 c 3.858314,-1.14702 7.455932,-2.32017 10.792866,-3.519404 l 0.547464,0.156405 0,6.178569 c 2.659097,-2.50269 4.744673,-4.17116 6.256735,-5.00542 1.564163,-0.88634 3.258694,-1.329524 5.083596,-1.329554 2.867643,3e-5 5.109638,1.042824 6.72599,3.128364 1.66843,2.03347 2.50266,4.90118 2.502694,8.603062 l 0,17.90989 c -3.4e-5,1.9291 0.312803,3.23261 0.938508,3.91044 0.62564,0.62569 1.903056,1.04281 3.832251,1.25138 l 0,1.17305 -16.26751,0 0,-1.17305 c 1.981277,-0.15643 3.284762,-0.67784 3.91046,-1.56422 0.677787,-0.88639 1.016693,-2.55479 1.016719,-5.0054 l 0,-16.34567 c -2.6e-5,-5.057542 -1.903114,-7.586312 -5.709271,-7.586342 -1.303504,3e-5 -2.50271,0.31286 -3.597621,0.9385 -1.094944,0.57357 -2.580918,1.74673 -4.457923,3.5194 l 0,21.976752 c -1.2e-5,1.40781 0.364962,2.39847 1.094928,2.97202 0.729938,0.57355 2.085563,0.93853 4.066878,1.09496 l 0,1.17305 -16.580347,0 0,-1.17305 c 1.981297,-0.15643 3.284783,-0.59962 3.91046,-1.32959 0.625667,-0.78212 0.938504,-2.29419 0.93851,-4.53614 l 0,-19.395892 c -6e-6,-1.9291 -0.208563,-3.23261 -0.625674,-3.91045 -0.417121,-0.72993 -1.173141,-1.0949 -2.268066,-1.09493 -0.990651,3e-5 -1.694532,0.10428 -2.111647,0.31282" />
        <path
          d="m 53.400807,93.691078 0,-1.32955 c 3.754036,-1.04276 7.403795,-2.21589 10.949285,-3.519404 l 0.547465,0.156405 0,5.865719 c 3.232629,-2.45055 5.631043,-4.06686 7.195244,-4.84899 1.564162,-0.782058 3.206554,-1.173104 4.927178,-1.173134 4.118988,3e-5 6.882376,2.189884 8.290174,6.569604 4.06684,-4.37972 8.3162,-6.569574 12.748095,-6.569604 6.048122,3e-5 9.072202,4.640454 9.072252,13.921226 l 0,16.11114 c -5e-5,2.91978 1.12095,4.45792 3.363,4.61434 l 2.03344,0.15643 0,1.17305 -17.127804,0 0,-1.17305 c 2.294091,-0.26071 3.727924,-0.70391 4.301505,-1.32959 0.573489,-0.62569 0.860249,-2.05956 0.860299,-4.30151 l 0,-16.50218 c -5e-5,-3.232622 -0.41716,-5.474562 -1.251344,-6.725942 -0.834278,-1.25134 -2.372391,-1.877 -4.614343,-1.87704 -3.441242,4e-5 -6.282839,1.59027 -8.524799,4.77074 l 0,19.708742 c -3.4e-5,2.45051 0.364942,4.09293 1.094928,4.92719 0.782056,0.83424 2.294099,1.27745 4.536133,1.32959 l 0,1.17305 -17.518857,0 0,-1.17305 c 2.241973,-0.15643 3.675805,-0.57355 4.301506,-1.25138 0.677785,-0.67783 1.016692,-2.1117 1.016719,-4.3015 l 0,-16.97146 c -2.7e-5,-5.474562 -1.720628,-8.211882 -5.161806,-8.211922 -1.459926,4e-5 -3.102317,0.365 -4.927178,1.09494 -1.772757,0.72996 -3.206591,1.90313 -4.301506,3.51938 l 0,22.054962 c -1.3e-5,1.51208 0.364964,2.55489 1.094929,3.12844 0.729937,0.52141 2.137702,0.83425 4.223296,0.93854 l 0,1.17305 -17.362437,0 0,-1.17305 c 2.189854,-0.0521 3.649757,-0.4432 4.379713,-1.17317 0.729946,-0.72997 1.094922,-2.16384 1.094927,-4.3015 l 0,-19.786952 c -5e-6,-1.87696 -0.208563,-3.18047 -0.625672,-3.91045 -0.364981,-0.72993 -1.068863,-1.0949 -2.111648,-1.09493 -0.782094,3e-5 -1.616324,0.10428 -2.502694,0.31282" />
        <path
          d="m 133.13018,89.624221 0,2.502687 -7.89913,0 0,22.367882 c -2e-5,2.4505 0.31283,4.24935 0.93852,5.39634 0.62565,1.09496 1.66844,1.64242 3.12836,1.64242 1.61631,0 3.18048,-0.91245 4.69256,-2.73727 l 1.0167,0.86022 c -2.5027,3.96268 -5.63108,5.94392 -9.3851,5.94392 -4.64041,0 -6.96061,-3.31083 -6.9606,-9.93257 l 0,-23.540942 -4.1451,0 c -0.20856,-0.15639 -0.31284,-0.33888 -0.31284,-0.54746 0,-0.26068 0.0782,-0.46922 0.23463,-0.62568 0.15642,-0.15638 0.44318,-0.36495 0.8603,-0.62567 0.46925,-0.3128 1.01672,-0.703846 1.64239,-1.173145 0.62568,-0.521351 1.48598,-1.433787 2.58091,-2.737318 1.09492,-1.303451 2.29413,-2.867628 3.59762,-4.692552 0.83422,-1.199159 1.62181,-2.442225 1.83038,-2.702962 0.36658,3.424763 0.28127,7.003135 0.28127,10.6021 l 7.89913,0" />
        <path
          d="M 119.52019,83.353651 C 119.73891,70.203036 114.42595,57.794659 105.11318,48.238505 95.814819,38.667995 82.473977,32.888852 68.938637,32.691185 l -4e-6,0 C 55.403296,32.478569 41.723601,37.852794 31.890705,47.368163 l -7e-6,0 c -9.83969,9.508599 -15.759581,23.093185 -15.963328,36.919142 -0.01841,1.238044 0.0059,2.477298 0.07362,3.714777 l -0.858182,0.05932 0,0 C 15.036972,86.806571 14.975014,85.547524 14.956595,84.287284 14.752852,70.195917 20.36119,56.045636 30.330884,45.813713 l 2e-6,-8e-6 C 40.307502,35.588567 54.459429,29.474633 68.938797,29.262017 l 1.1e-5,0 c 14.47936,-0.197675 28.970132,5.511341 39.481162,15.681356 9.35741,9.07907 15.19551,21.065676 16.53983,34.117145 z" />
        <path
          d="M 105.97976,51.84834 68.586457,73.742421 c -1.789062,-1.290452 -4.262482,-1.440463 -6.224264,-0.167823 -2.549381,1.653841 -3.27731,5.074703 -1.621774,7.621481 1.65553,2.546786 5.079882,3.27397 7.62927,1.620103 1.961782,-1.272637 2.830706,-3.590898 2.378351,-5.748522 l 35.23174,-25.219346 z" />
    </symbol>
  </defs>
</svg>
