<svg xmlns="http://www.w3.org/2000/svg" viewBox="0 0 150 150"><title>logo-nmt-benchmark</title><g id="background"><rect width="150" height="150" style="fill:#ac4142"/></g><g id="svg2"><path id="path12" d="M100.37,40.84,61.64,72.39a6.35,6.35,0,1,0,3.05,3.41l35.68-35Z" transform="translate(0)" style="fill:#fff"/><g id="text4146" style="isolation:isolate"><g style="isolation:isolate"><path d="M42.92,97v33.15H41.25L14.58,99.51v22.62c0,4,1.07,5.06,5.67,5.57v1.41H6.7v-1.41c4.36-.51,5.25-1.29,5.25-4.5V96.53c-2.86-3.21-3.88-4.05-5.07-4.05V91.07H19.47l20.82,24.14V98c0-4-1.13-5.18-5.55-5.57V91.07H47.57v1.41C43.69,93,42.92,93.77,42.92,97Z" transform="translate(0)" style="fill:#fff"/><path d="M84,129.11v-1.41c4.47-.39,5.31-1.07,5.31-4.22V94.84l-15,34.27H72.63l-15-33.43v26.45c0,4.16,1.13,5.23,6,5.57v1.41h-14v-1.41c4.65-.45,5.43-1.12,5.43-4.5V96.47c0-2.93-1-3.66-5.31-4V91.07H64.87L76.8,117.63,88.74,91.07h15v1.41c-4.36.28-5.25,1.13-5.25,5.18v24.87c0,4,.6,4.61,5.25,5.18v1.41Z" transform="translate(0)" style="fill:#fff"/><path d="M141.36,102.38c-1-6.7-4.12-9.29-11.46-9.51v29.66c0,4.28.66,4.84,5.85,5.18v1.41h-21.3v-1.41c5.13-.39,5.79-1,5.79-5.18V92.87c-7.4.23-10.5,2.81-11.51,9.51H107l.18-11.31H143l.12,11.31Z" transform="translate(0)" style="fill:#fff"/></g></g><g id="g4137"><path id="path10" d="M119.08,84.52c1.39-12.09,1.11-27.39-5.92-40.37C107.82,34,98.55,23.21,73.7,21h0c-15.49-.35-31.46,2.88-44.09,14.13h0A65.58,65.58,0,0,0,8,79.9q-.13,2.29-.1,4.59l-1.06,0h0q-.1-2.33,0-4.67a67.53,67.53,0,0,1,21-46.73h0A68.78,68.78,0,0,1,76.29,14.65h0a69.56,69.56,0,0,1,48,21.39c11.09,11.69,17.69,32.29,18.68,48.47Z" transform="translate(0)" style="fill:#fff"/></g></g></svg>